<svg width="188" height="15" viewBox="0 0 188 15" fill="none" xmlns="http://www.w3.org/2000/svg">
<path d="M7.22 13.9L4.02 8.33999H2.28V13.9H5.96046e-08V-7.15256e-06H4.8C5.86667 -7.15256e-06 6.76667 0.186659 7.5 0.559993C8.24667 0.933326 8.8 1.43333 9.16 2.05999C9.53333 2.68666 9.72 3.38666 9.72 4.15999C9.72 5.06666 9.45333 5.89333 8.92 6.63999C8.4 7.37333 7.59333 7.87333 6.5 8.13999L9.94 13.9H7.22ZM2.28 6.51999H4.8C5.65333 6.51999 6.29333 6.30666 6.72 5.87999C7.16 5.45333 7.38 4.87999 7.38 4.15999C7.38 3.43999 7.16667 2.87999 6.74 2.47999C6.31333 2.06666 5.66667 1.85999 4.8 1.85999H2.28V6.51999ZM22.7367 8.11999C22.7367 8.53333 22.7101 8.90666 22.6567 9.23999H14.2367C14.3034 10.12 14.6301 10.8267 15.2167 11.36C15.8034 11.8933 16.5234 12.16 17.3767 12.16C18.6034 12.16 19.4701 11.6467 19.9767 10.62H22.4367C22.1034 11.6333 21.4967 12.4667 20.6167 13.12C19.7501 13.76 18.6701 14.08 17.3767 14.08C16.3234 14.08 15.3767 13.8467 14.5367 13.38C13.7101 12.9 13.0567 12.2333 12.5767 11.38C12.1101 10.5133 11.8767 9.51333 11.8767 8.37999C11.8767 7.24666 12.1034 6.25333 12.5567 5.39999C13.0234 4.53333 13.6701 3.86666 14.4967 3.39999C15.3367 2.93333 16.2967 2.69999 17.3767 2.69999C18.4167 2.69999 19.3434 2.92666 20.1567 3.37999C20.9701 3.83333 21.6034 4.47333 22.0567 5.29999C22.5101 6.11333 22.7367 7.05333 22.7367 8.11999ZM20.3567 7.39999C20.3434 6.55999 20.0434 5.88666 19.4567 5.37999C18.8701 4.87333 18.1434 4.61999 17.2767 4.61999C16.4901 4.61999 15.8167 4.87333 15.2567 5.37999C14.6967 5.87333 14.3634 6.54666 14.2567 7.39999H20.3567ZM28.9805 14.08C28.1138 14.08 27.3338 13.9267 26.6405 13.62C25.9605 13.3 25.4205 12.8733 25.0205 12.34C24.6205 11.7933 24.4071 11.1867 24.3805 10.52H26.7405C26.7805 10.9867 27.0005 11.38 27.4005 11.7C27.8138 12.0067 28.3271 12.16 28.9405 12.16C29.5805 12.16 30.0738 12.04 30.4205 11.8C30.7805 11.5467 30.9605 11.2267 30.9605 10.84C30.9605 10.4267 30.7605 10.12 30.3605 9.91999C29.9738 9.71999 29.3538 9.49999 28.5005 9.25999C27.6738 9.03333 27.0005 8.81333 26.4805 8.59999C25.9605 8.38666 25.5071 8.05999 25.1205 7.61999C24.7471 7.17999 24.5605 6.59999 24.5605 5.87999C24.5605 5.29333 24.7338 4.75999 25.0805 4.27999C25.4271 3.78666 25.9205 3.39999 26.5605 3.11999C27.2138 2.83999 27.9605 2.69999 28.8005 2.69999C30.0538 2.69999 31.0605 3.01999 31.8205 3.65999C32.5938 4.28666 33.0071 5.14666 33.0605 6.23999H30.7805C30.7405 5.74666 30.5405 5.35333 30.1805 5.05999C29.8205 4.76666 29.3338 4.61999 28.7205 4.61999C28.1205 4.61999 27.6605 4.73333 27.3405 4.95999C27.0205 5.18666 26.8605 5.48666 26.8605 5.85999C26.8605 6.15333 26.9671 6.39999 27.1805 6.59999C27.3938 6.79999 27.6538 6.95999 27.9605 7.07999C28.2671 7.18666 28.7205 7.32666 29.3205 7.49999C30.1205 7.71333 30.7738 7.93333 31.2805 8.15999C31.8005 8.37333 32.2471 8.69333 32.6205 9.11999C32.9938 9.54666 33.1871 10.1133 33.2005 10.82C33.2005 11.4467 33.0271 12.0067 32.6805 12.5C32.3338 12.9933 31.8405 13.38 31.2005 13.66C30.5738 13.94 29.8338 14.08 28.9805 14.08ZM38.3241 4.73999V10.84C38.3241 11.2533 38.4174 11.5533 38.6041 11.74C38.8041 11.9133 39.1374 12 39.6041 12H41.0041V13.9H39.2041C38.1774 13.9 37.3907 13.66 36.8441 13.18C36.2974 12.7 36.0241 11.92 36.0241 10.84V4.73999H34.7241V2.87999H36.0241V0.139993H38.3241V2.87999H41.0041V4.73999H38.3241ZM42.3455 8.33999C42.3455 7.23333 42.5721 6.25333 43.0255 5.39999C43.4921 4.54666 44.1188 3.88666 44.9055 3.41999C45.7055 2.93999 46.5855 2.69999 47.5455 2.69999C48.4121 2.69999 49.1655 2.87333 49.8055 3.21999C50.4588 3.55333 50.9788 3.97333 51.3655 4.47999V2.87999H53.6655V13.9H51.3655V12.26C50.9788 12.78 50.4521 13.2133 49.7855 13.56C49.1188 13.9067 48.3588 14.08 47.5055 14.08C46.5588 14.08 45.6921 13.84 44.9055 13.36C44.1188 12.8667 43.4921 12.1867 43.0255 11.32C42.5721 10.44 42.3455 9.44666 42.3455 8.33999ZM51.3655 8.37999C51.3655 7.61999 51.2055 6.95999 50.8855 6.39999C50.5788 5.83999 50.1721 5.41333 49.6655 5.11999C49.1588 4.82666 48.6121 4.67999 48.0255 4.67999C47.4388 4.67999 46.8921 4.82666 46.3855 5.11999C45.8788 5.39999 45.4655 5.81999 45.1455 6.37999C44.8388 6.92666 44.6855 7.57999 44.6855 8.33999C44.6855 9.09999 44.8388 9.76666 45.1455 10.34C45.4655 10.9133 45.8788 11.3533 46.3855 11.66C46.9055 11.9533 47.4521 12.1 48.0255 12.1C48.6121 12.1 49.1588 11.9533 49.6655 11.66C50.1721 11.3667 50.5788 10.94 50.8855 10.38C51.2055 9.80666 51.3655 9.13999 51.3655 8.37999ZM66.6402 2.87999V13.9H64.3602V12.6C64.0002 13.0533 63.5268 13.4133 62.9402 13.68C62.3668 13.9333 61.7535 14.06 61.1002 14.06C60.2335 14.06 59.4535 13.88 58.7602 13.52C58.0802 13.16 57.5402 12.6267 57.1402 11.92C56.7535 11.2133 56.5602 10.36 56.5602 9.35999V2.87999H58.8202V9.01999C58.8202 10.0067 59.0668 10.7667 59.5602 11.3C60.0535 11.82 60.7268 12.08 61.5802 12.08C62.4335 12.08 63.1068 11.82 63.6002 11.3C64.1068 10.7667 64.3602 10.0067 64.3602 9.01999V2.87999H66.6402ZM71.9284 4.47999C72.2618 3.91999 72.7018 3.48666 73.2484 3.17999C73.8084 2.85999 74.4684 2.69999 75.2284 2.69999V5.05999H74.6484C73.7551 5.05999 73.0751 5.28666 72.6084 5.73999C72.1551 6.19333 71.9284 6.97999 71.9284 8.09999V13.9H69.6484V2.87999H71.9284V4.47999ZM76.5642 8.33999C76.5642 7.23333 76.7909 6.25333 77.2442 5.39999C77.7109 4.54666 78.3376 3.88666 79.1242 3.41999C79.9242 2.93999 80.8042 2.69999 81.7642 2.69999C82.6309 2.69999 83.3842 2.87333 84.0242 3.21999C84.6776 3.55333 85.1976 3.97333 85.5842 4.47999V2.87999H87.8842V13.9H85.5842V12.26C85.1976 12.78 84.6709 13.2133 84.0042 13.56C83.3376 13.9067 82.5776 14.08 81.7242 14.08C80.7776 14.08 79.9109 13.84 79.1242 13.36C78.3376 12.8667 77.7109 12.1867 77.2442 11.32C76.7909 10.44 76.5642 9.44666 76.5642 8.33999ZM85.5842 8.37999C85.5842 7.61999 85.4242 6.95999 85.1042 6.39999C84.7976 5.83999 84.3909 5.41333 83.8842 5.11999C83.3776 4.82666 82.8309 4.67999 82.2442 4.67999C81.6576 4.67999 81.1109 4.82666 80.6042 5.11999C80.0976 5.39999 79.6842 5.81999 79.3642 6.37999C79.0576 6.92666 78.9042 7.57999 78.9042 8.33999C78.9042 9.09999 79.0576 9.76666 79.3642 10.34C79.6842 10.9133 80.0976 11.3533 80.6042 11.66C81.1242 11.9533 81.6709 12.1 82.2442 12.1C82.8309 12.1 83.3776 11.9533 83.8842 11.66C84.3909 11.3667 84.7976 10.94 85.1042 10.38C85.4242 9.80666 85.5842 9.13999 85.5842 8.37999ZM96.4389 2.69999C97.3056 2.69999 98.0789 2.87999 98.7589 3.23999C99.4522 3.59999 99.9922 4.13333 100.379 4.83999C100.766 5.54666 100.959 6.39999 100.959 7.39999V13.9H98.6989V7.73999C98.6989 6.75333 98.4522 5.99999 97.9589 5.47999C97.4656 4.94666 96.7922 4.67999 95.9389 4.67999C95.0856 4.67999 94.4056 4.94666 93.8989 5.47999C93.4056 5.99999 93.1589 6.75333 93.1589 7.73999V13.9H90.8789V2.87999H93.1589V4.13999C93.5322 3.68666 94.0056 3.33333 94.5789 3.07999C95.1656 2.82666 95.7856 2.69999 96.4389 2.69999ZM106.527 4.73999V10.84C106.527 11.2533 106.621 11.5533 106.807 11.74C107.007 11.9133 107.341 12 107.807 12H109.207V13.9H107.407C106.381 13.9 105.594 13.66 105.047 13.18C104.501 12.7 104.227 11.92 104.227 10.84V4.73999H102.927V2.87999H104.227V0.139993H106.527V2.87999H109.207V4.73999H106.527ZM119.164 4.73999V10.84C119.164 11.2533 119.257 11.5533 119.444 11.74C119.644 11.9133 119.977 12 120.444 12H121.844V13.9H120.044C119.017 13.9 118.231 13.66 117.684 13.18C117.137 12.7 116.864 11.92 116.864 10.84V4.73999H115.564V2.87999H116.864V0.139993H119.164V2.87999H121.844V4.73999H119.164ZM134.045 8.11999C134.045 8.53333 134.019 8.90666 133.965 9.23999H125.545C125.612 10.12 125.939 10.8267 126.525 11.36C127.112 11.8933 127.832 12.16 128.685 12.16C129.912 12.16 130.779 11.6467 131.285 10.62H133.745C133.412 11.6333 132.805 12.4667 131.925 13.12C131.059 13.76 129.979 14.08 128.685 14.08C127.632 14.08 126.685 13.8467 125.845 13.38C125.019 12.9 124.365 12.2333 123.885 11.38C123.419 10.5133 123.185 9.51333 123.185 8.37999C123.185 7.24666 123.412 6.25333 123.865 5.39999C124.332 4.53333 124.979 3.86666 125.805 3.39999C126.645 2.93333 127.605 2.69999 128.685 2.69999C129.725 2.69999 130.652 2.92666 131.465 3.37999C132.279 3.83333 132.912 4.47333 133.365 5.29999C133.819 6.11333 134.045 7.05333 134.045 8.11999ZM131.665 7.39999C131.652 6.55999 131.352 5.88666 130.765 5.37999C130.179 4.87333 129.452 4.61999 128.585 4.61999C127.799 4.61999 127.125 4.87333 126.565 5.37999C126.005 5.87333 125.672 6.54666 125.565 7.39999H131.665ZM138.569 4.47999C138.902 3.91999 139.342 3.48666 139.889 3.17999C140.449 2.85999 141.109 2.69999 141.869 2.69999V5.05999H141.289C140.396 5.05999 139.716 5.28666 139.249 5.73999C138.796 6.19333 138.569 6.97999 138.569 8.09999V13.9H136.289V2.87999H138.569V4.47999ZM146.245 4.47999C146.578 3.91999 147.018 3.48666 147.565 3.17999C148.125 2.85999 148.785 2.69999 149.545 2.69999V5.05999H148.965C148.072 5.05999 147.392 5.28666 146.925 5.73999C146.472 6.19333 146.245 6.97999 146.245 8.09999V13.9H143.965V2.87999H146.245V4.47999ZM150.881 8.33999C150.881 7.23333 151.107 6.25333 151.561 5.39999C152.027 4.54666 152.654 3.88666 153.441 3.41999C154.241 2.93999 155.121 2.69999 156.081 2.69999C156.947 2.69999 157.701 2.87333 158.341 3.21999C158.994 3.55333 159.514 3.97333 159.901 4.47999V2.87999H162.201V13.9H159.901V12.26C159.514 12.78 158.987 13.2133 158.321 13.56C157.654 13.9067 156.894 14.08 156.041 14.08C155.094 14.08 154.227 13.84 153.441 13.36C152.654 12.8667 152.027 12.1867 151.561 11.32C151.107 10.44 150.881 9.44666 150.881 8.33999ZM159.901 8.37999C159.901 7.61999 159.741 6.95999 159.421 6.39999C159.114 5.83999 158.707 5.41333 158.201 5.11999C157.694 4.82666 157.147 4.67999 156.561 4.67999C155.974 4.67999 155.427 4.82666 154.921 5.11999C154.414 5.39999 154.001 5.81999 153.681 6.37999C153.374 6.92666 153.221 7.57999 153.221 8.33999C153.221 9.09999 153.374 9.76666 153.681 10.34C154.001 10.9133 154.414 11.3533 154.921 11.66C155.441 11.9533 155.987 12.1 156.561 12.1C157.147 12.1 157.694 11.9533 158.201 11.66C158.707 11.3667 159.114 10.94 159.421 10.38C159.741 9.80666 159.901 9.13999 159.901 8.37999ZM164.435 8.37999C164.435 7.24666 164.662 6.25333 165.115 5.39999C165.582 4.53333 166.222 3.86666 167.035 3.39999C167.849 2.93333 168.782 2.69999 169.835 2.69999C171.169 2.69999 172.269 3.01999 173.135 3.65999C174.015 4.28666 174.609 5.18666 174.915 6.35999H172.455C172.255 5.81333 171.935 5.38666 171.495 5.07999C171.055 4.77333 170.502 4.61999 169.835 4.61999C168.902 4.61999 168.155 4.95333 167.595 5.61999C167.049 6.27333 166.775 7.19333 166.775 8.37999C166.775 9.56666 167.049 10.4933 167.595 11.16C168.155 11.8267 168.902 12.16 169.835 12.16C171.155 12.16 172.029 11.58 172.455 10.42H174.915C174.595 11.54 173.995 12.4333 173.115 13.1C172.235 13.7533 171.142 14.08 169.835 14.08C168.782 14.08 167.849 13.8467 167.035 13.38C166.222 12.9 165.582 12.2333 165.115 11.38C164.662 10.5133 164.435 9.51333 164.435 8.37999ZM187.288 8.11999C187.288 8.53333 187.261 8.90666 187.208 9.23999H178.788C178.854 10.12 179.181 10.8267 179.768 11.36C180.354 11.8933 181.074 12.16 181.928 12.16C183.154 12.16 184.021 11.6467 184.528 10.62H186.987C186.654 11.6333 186.048 12.4667 185.168 13.12C184.301 13.76 183.221 14.08 181.928 14.08C180.874 14.08 179.928 13.8467 179.088 13.38C178.261 12.9 177.608 12.2333 177.128 11.38C176.661 10.5133 176.428 9.51333 176.428 8.37999C176.428 7.24666 176.654 6.25333 177.108 5.39999C177.574 4.53333 178.221 3.86666 179.048 3.39999C179.888 2.93333 180.848 2.69999 181.928 2.69999C182.968 2.69999 183.894 2.92666 184.708 3.37999C185.521 3.83333 186.154 4.47333 186.608 5.29999C187.061 6.11333 187.288 7.05333 187.288 8.11999ZM184.908 7.39999C184.894 6.55999 184.594 5.88666 184.008 5.37999C183.421 4.87333 182.694 4.61999 181.828 4.61999C181.041 4.61999 180.368 4.87333 179.808 5.37999C179.248 5.87333 178.914 6.54666 178.808 7.39999H184.908Z" fill="#212121"/>
</svg>
